<svg width="121" height="48" viewBox="0 0 121 48" fill="none" xmlns="http://www.w3.org/2000/svg">
<g filter="url(#filter0_d_6_652)">
<path d="M32.875 3.9375C32.875 2.89321 32.4602 1.89169 31.7217 1.15327C30.9833 0.414843 29.9818 0 28.9375 0C27.8932 0 26.8917 0.414843 26.1533 1.15327C25.4148 1.89169 25 2.89321 25 3.9375V14.7C27.4279 13.4575 30.1592 12.9313 32.875 13.1827V3.9375ZM22.375 11.8125V16.4246C20.7314 17.7779 19.4081 19.4787 18.5003 21.4045C17.5926 23.3304 17.1228 25.4334 17.125 27.5625C17.125 28.8986 17.3088 30.1928 17.6474 31.4213C16.7585 31.2392 15.9598 30.7557 15.3863 30.0526C14.8128 29.3495 14.4997 28.4698 14.5 27.5625V11.8125C14.5 10.7682 14.9148 9.76669 15.6533 9.02827C16.3917 8.28984 17.3932 7.875 18.4375 7.875C19.4818 7.875 20.4833 8.28984 21.2217 9.02827C21.9602 9.76669 22.375 10.7682 22.375 11.8125ZM7.9375 15.75C8.98179 15.75 9.98331 16.1648 10.7217 16.9033C11.4602 17.6417 11.875 18.6432 11.875 19.6875V27.5625C11.875 28.6068 11.4602 29.6083 10.7217 30.3467C9.98331 31.0852 8.98179 31.5 7.9375 31.5C6.89321 31.5 5.89169 31.0852 5.15327 30.3467C4.41484 29.6083 4 28.6068 4 27.5625V19.6875C4 18.6432 4.41484 17.6417 5.15327 16.9033C5.89169 16.1648 6.89321 15.75 7.9375 15.75ZM43.375 27.5625C43.375 30.6954 42.1305 33.6999 39.9152 35.9152C37.6999 38.1305 34.6954 39.375 31.5625 39.375C28.4296 39.375 25.4251 38.1305 23.2098 35.9152C20.9945 33.6999 19.75 30.6954 19.75 27.5625C19.75 24.4296 20.9945 21.4251 23.2098 19.2098C25.4251 16.9945 28.4296 15.75 31.5625 15.75C34.6954 15.75 37.6999 16.9945 39.9152 19.2098C42.1305 21.4251 43.375 24.4296 43.375 27.5625ZM32.812 20.6325C32.7362 20.3594 32.5729 20.1186 32.3473 19.947C32.1216 19.7755 31.846 19.6826 31.5625 19.6826C31.279 19.6826 31.0034 19.7755 30.7777 19.947C30.5521 20.1186 30.3888 20.3594 30.313 20.6325L29.0609 24.654H25C23.7295 24.654 23.1993 26.3524 24.2283 27.132L27.5095 29.6179L26.2574 33.6394C25.8636 34.8994 27.2496 35.9494 28.2786 35.1698L31.5599 32.6839L34.8411 35.1698C35.8701 35.9494 37.2561 34.8994 36.8624 33.6394L35.6102 29.6179L38.8915 27.132C39.9205 26.3524 39.3903 24.654 38.1198 24.654H34.0615L32.8094 20.6351L32.812 20.6325Z" fill="black"/>
<mask id="mask0_6_652" style="mask-type:alpha" maskUnits="userSpaceOnUse" x="4" y="0" width="40" height="40">
<path d="M32.875 3.9375C32.875 2.89321 32.4602 1.89169 31.7217 1.15327C30.9833 0.414843 29.9818 0 28.9375 0C27.8932 0 26.8917 0.414843 26.1533 1.15327C25.4148 1.89169 25 2.89321 25 3.9375V14.7C27.4279 13.4575 30.1592 12.9313 32.875 13.1827V3.9375ZM22.375 11.8125V16.4246C20.7314 17.7779 19.4081 19.4787 18.5003 21.4045C17.5926 23.3304 17.1228 25.4334 17.125 27.5625C17.125 28.8986 17.3088 30.1928 17.6474 31.4213C16.7585 31.2392 15.9598 30.7557 15.3863 30.0526C14.8128 29.3495 14.4997 28.4698 14.5 27.5625V11.8125C14.5 10.7682 14.9148 9.76669 15.6533 9.02827C16.3917 8.28984 17.3932 7.875 18.4375 7.875C19.4818 7.875 20.4833 8.28984 21.2217 9.02827C21.9602 9.76669 22.375 10.7682 22.375 11.8125ZM7.9375 15.75C8.98179 15.75 9.98331 16.1648 10.7217 16.9033C11.4602 17.6417 11.875 18.6432 11.875 19.6875V27.5625C11.875 28.6068 11.4602 29.6083 10.7217 30.3467C9.98331 31.0852 8.98179 31.5 7.9375 31.5C6.89321 31.5 5.89169 31.0852 5.15327 30.3467C4.41484 29.6083 4 28.6068 4 27.5625V19.6875C4 18.6432 4.41484 17.6417 5.15327 16.9033C5.89169 16.1648 6.89321 15.75 7.9375 15.75ZM43.375 27.5625C43.375 30.6954 42.1305 33.6999 39.9152 35.9152C37.6999 38.1305 34.6954 39.375 31.5625 39.375C28.4296 39.375 25.4251 38.1305 23.2098 35.9152C20.9945 33.6999 19.75 30.6954 19.75 27.5625C19.75 24.4296 20.9945 21.4251 23.2098 19.2098C25.4251 16.9945 28.4296 15.75 31.5625 15.75C34.6954 15.75 37.6999 16.9945 39.9152 19.2098C42.1305 21.4251 43.375 24.4296 43.375 27.5625ZM32.812 20.6325C32.7362 20.3594 32.5729 20.1186 32.3473 19.947C32.1216 19.7755 31.846 19.6826 31.5625 19.6826C31.279 19.6826 31.0034 19.7755 30.7777 19.947C30.5521 20.1186 30.3888 20.3594 30.313 20.6325L29.0609 24.654H25C23.7295 24.654 23.1993 26.3524 24.2283 27.132L27.5095 29.6179L26.2574 33.6394C25.8636 34.8994 27.2496 35.9494 28.2786 35.1698L31.5599 32.6839L34.8411 35.1698C35.8701 35.9494 37.2561 34.8994 36.8624 33.6394L35.6102 29.6179L38.8915 27.132C39.9205 26.3524 39.3903 24.654 38.1198 24.654H34.0615L32.8094 20.6351L32.812 20.6325Z" fill="black"/>
</mask>
<g mask="url(#mask0_6_652)">
<ellipse cx="31.5" cy="28.5" rx="12.5" ry="13.5" fill="#1DCDFE"/>
</g>
<path d="M62.5005 13.821L55.3461 32H51L58.9233 11.9127C59.7591 9.80349 61.297 9 63.6706 9C66.0109 9 67.5487 9.80349 68.3511 11.9127L75.9735 32H71.594L64.7404 13.821C64.5399 13.2853 64.1721 13.0509 63.6372 13.0509C63.1023 13.0509 62.7345 13.2853 62.5005 13.821Z" fill="black"/>
<path d="M76.5714 19.6798H88.5065V23.0946H76.5714V19.6798Z" fill="black"/>
<path d="M92.2187 9.40175H96.1637V32H92.2187V9.40175Z" fill="black"/>
<path d="M99.8495 9.40175H117V13.3523H110.414V32H106.436V13.3523H99.8495V9.40175Z" fill="black"/>
</g>
<defs>
<filter id="filter0_d_6_652" x="0" y="0" width="121" height="47.375" filterUnits="userSpaceOnUse" color-interpolation-filters="sRGB">
<feFlood flood-opacity="0" result="BackgroundImageFix"/>
<feColorMatrix in="SourceAlpha" type="matrix" values="0 0 0 0 0 0 0 0 0 0 0 0 0 0 0 0 0 0 127 0" result="hardAlpha"/>
<feOffset dy="4"/>
<feGaussianBlur stdDeviation="2"/>
<feComposite in2="hardAlpha" operator="out"/>
<feColorMatrix type="matrix" values="0 0 0 0 0 0 0 0 0 0 0 0 0 0 0 0 0 0 0.25 0"/>
<feBlend mode="normal" in2="BackgroundImageFix" result="effect1_dropShadow_6_652"/>
<feBlend mode="normal" in="SourceGraphic" in2="effect1_dropShadow_6_652" result="shape"/>
</filter>
</defs>
</svg>
